<svg width="51" height="51" viewBox="0 0 51 51" fill="#1e1e1e" xmlns="http://www.w3.org/2000/svg">
<path d="M31.0237 25.6857C31.0237 28.7495 28.5399 31.2333 25.4761 31.2333C22.4122 31.2333 19.9284 28.7495 19.9284 25.6857C19.9284 22.6217 22.4122 20.138 25.4761 20.138C26.8537 20.138 28.1139 20.6401 29.0839 21.4712C28.8387 21.329 28.5538 21.2476 28.2499 21.2476C27.3308 21.2476 26.5856 21.9926 26.5856 22.9119C26.5856 23.831 27.3308 24.5761 28.2499 24.5761C29.169 24.5761 29.9142 23.831 29.9142 22.9119C29.9142 22.6078 29.8328 22.323 29.6905 22.0778C30.5217 23.0478 31.0237 24.3081 31.0237 25.6857Z" fill="#333333"/>
<path fill-rule="evenodd" clip-rule="evenodd" d="M41.1672 9.99453C41.1672 9.99453 23.1224 9.20997 16.1027 16.2297C9.08302 23.2494 9.78495 41.3768 9.78495 41.3768C9.78495 41.3768 27.9124 42.0787 34.932 35.0591C41.9518 28.0393 41.1672 9.99453 41.1672 9.99453ZM12.0033 38.4884C11.9975 38.729 11.9933 38.9571 11.9903 39.1713C12.2046 39.1683 12.4327 39.1642 12.6732 39.1583C14.4282 39.1158 16.8329 38.988 19.4405 38.6497C20.9786 38.45 22.5691 38.1795 24.1266 37.8161C21.4668 37.5219 18.8853 36.3551 16.846 34.3158C14.8066 32.2764 13.6398 29.6949 13.3456 27.0351C12.9823 28.5927 12.7117 30.183 12.512 31.7212C12.1736 34.3288 12.0459 36.7335 12.0033 38.4884ZM38.4804 19.616C38.279 21.2092 38.0007 22.8589 37.6205 24.4697C37.351 21.7629 36.1796 19.129 34.1062 17.0555C32.0327 14.982 29.3987 13.8106 26.6919 13.5411C28.3028 13.1609 29.9524 12.8826 31.5456 12.6812C34.1421 12.3529 36.5357 12.2353 38.2825 12.2002C38.5254 12.1954 38.7556 12.1921 38.9716 12.1901C38.9696 12.406 38.9663 12.6362 38.9615 12.8792C38.9263 14.6259 38.8087 17.0195 38.4804 19.616ZM32.5371 32.7467C36.4368 28.8469 36.4367 22.5243 32.5371 18.6246C28.6374 14.7249 22.3148 14.7249 18.4151 18.6246C14.5154 22.5244 14.5154 28.8469 18.4151 32.7467C22.3147 36.6463 28.6374 36.6464 32.5371 32.7467Z" fill="#333333"/>
</svg>
