<svg width="40" height="38" viewBox="0 0 40 38" fill="#1e1e1e" xmlns="http://www.w3.org/2000/svg">
<path fill-rule="evenodd" clip-rule="evenodd" d="M23.199 25.8095L25.9487 25.0727C31.3724 23.6194 34.591 18.0447 33.1377 12.621C31.6844 7.19741 26.1097 3.97882 20.686 5.43208L12.0442 7.74767C6.62053 9.20093 3.40195 14.7757 4.85521 20.1993C6.52127 26.4171 11.6383 29.1208 16.7478 30.2547C19.2855 30.8178 21.7294 30.9663 23.5488 30.9712C23.9213 30.9722 24.2661 30.9672 24.5788 30.9586L23.199 25.8095ZM26.6649 32.4591C26.6649 32.4591 26.0476 32.5316 25.011 32.5719C20.2077 32.7584 6.40052 32.2515 3.28396 20.6203C1.59819 14.329 5.3318 7.86218 11.6232 6.17642L20.265 3.86083C26.5564 2.17507 33.0232 5.90867 34.7089 12.2C36.3947 18.4914 32.6611 24.9582 26.3697 26.644L25.1913 26.9597L26.6649 32.4591Z" fill="#333333"/>
<path fill-rule="evenodd" clip-rule="evenodd" d="M19.3122 17.5886C19.7461 17.4724 20.0036 17.0264 19.8873 16.5925C19.7711 16.1586 19.3251 15.9011 18.8912 16.0174C18.4573 16.1336 18.1998 16.5796 18.3161 17.0135C18.4323 17.4474 18.8783 17.7049 19.3122 17.5886ZM19.7332 19.1599C21.0349 18.8111 21.8074 17.4732 21.4586 16.1715C21.1098 14.8698 19.7719 14.0973 18.4702 14.4461C17.1685 14.7949 16.396 16.1328 16.7448 17.4345C17.0936 18.7362 18.4315 19.5087 19.7332 19.1599Z" fill="#333333"/>
<path fill-rule="evenodd" clip-rule="evenodd" d="M25.5972 15.9046C26.0311 15.7883 26.2886 15.3423 26.1723 14.9084C26.0561 14.4745 25.6101 14.2171 25.1762 14.3333C24.7423 14.4496 24.4848 14.8956 24.6011 15.3295C24.7174 15.7634 25.1633 16.0208 25.5972 15.9046ZM26.0182 17.4758C27.3199 17.127 28.0924 15.7891 27.7436 14.4874C27.3948 13.1857 26.0569 12.4133 24.7552 12.7621C23.4535 13.1109 22.681 14.4488 23.0298 15.7505C23.3786 17.0522 24.7165 17.8246 26.0182 17.4758Z" fill="#333333"/>
<path fill-rule="evenodd" clip-rule="evenodd" d="M13.0272 19.2727C13.4611 19.1564 13.7186 18.7105 13.6023 18.2766C13.4861 17.8427 13.0401 17.5852 12.6062 17.7014C12.1723 17.8177 11.9148 18.2637 12.0311 18.6976C12.1473 19.1315 12.5933 19.389 13.0272 19.2727ZM13.4482 20.8439C14.7499 20.4951 15.5224 19.1572 15.1736 17.8555C14.8248 16.5538 13.4869 15.7814 12.1852 16.1302C10.8835 16.479 10.111 17.8169 10.4598 19.1186C10.8086 20.4203 12.1465 21.1927 13.4482 20.8439Z" fill="#333333"/>
</svg>
